<svg width="102" height="44" viewBox="0 0 102 44" fill="none" xmlns="http://www.w3.org/2000/svg">
<circle cx="56" cy="22" r="17.5" fill="white" stroke="white" stroke-width="5" stroke-dasharray="10 20 30 40"/>
<circle cx="56.0002" cy="21.9999" r="18.1818" fill="white"/>
<circle cx="58.5455" cy="25.9999" r="13.6364" fill="#00BAAF"/>
<circle cx="60.3634" cy="28.909" r="9.09091" fill="white"/>
<path d="M0.472656 9.86328C1.22266 10.0508 1.9375 10.1914 2.61719 10.2852C3.29688 10.3789 3.89453 10.4492 4.41016 10.4961C5.01953 10.5664 5.58203 10.5898 6.09766 10.5664C6.75391 10.5664 7.57422 10.5078 8.55859 10.3906C9.56641 10.2734 10.5977 10.168 11.6523 10.0742C12.707 9.95703 13.7148 9.88672 14.6758 9.86328C15.6602 9.81641 16.457 9.875 17.0664 10.0391C17.6758 10.1797 18.2969 10.4023 18.9297 10.707C19.5859 10.9883 20.1836 11.3516 20.7227 11.7969C21.2617 12.2188 21.707 12.7227 22.0586 13.3086C22.4102 13.8711 22.6094 14.5156 22.6562 15.2422C22.6328 16.1562 22.4219 17.0117 22.0234 17.8086C21.6953 18.4883 21.1445 19.1914 20.3711 19.918C19.5977 20.6211 18.4844 21.1602 17.0312 21.5352C17.7578 21.6289 18.3789 21.793 18.8945 22.0273C19.4336 22.2383 19.8906 22.4961 20.2656 22.8008C20.6641 23.082 20.9805 23.3984 21.2148 23.75C21.4727 24.1016 21.6719 24.4531 21.8125 24.8047C22.1641 25.625 22.3281 26.5391 22.3047 27.5469C22.1641 28.8594 21.8945 29.9023 21.4961 30.6758C21.1211 31.4492 20.6875 32.0469 20.1953 32.4688C19.7031 32.8906 19.1992 33.1836 18.6836 33.3477C18.168 33.5117 17.6992 33.6406 17.2773 33.7344C16.8555 33.8281 16.3398 33.875 15.7305 33.875C15.1211 33.875 14.4648 33.8633 13.7617 33.8398C13.082 33.793 12.3789 33.7578 11.6523 33.7344C10.9258 33.6875 10.2344 33.6875 9.57812 33.7344C9.03906 33.7812 8.38281 33.8281 7.60938 33.875C6.95312 33.9219 6.13281 33.9805 5.14844 34.0508C4.16406 34.0977 3.01562 34.1562 1.70312 34.2266C1.96094 34.0391 2.17188 33.8281 2.33594 33.5938C2.52344 33.3359 2.67578 33.1133 2.79297 32.9258C2.91016 32.6914 3.01562 32.4688 3.10938 32.2578C3.17969 32.0703 3.23828 31.5547 3.28516 30.7109C3.33203 29.8672 3.36719 28.8594 3.39062 27.6875C3.41406 26.4922 3.42578 25.2148 3.42578 23.8555C3.44922 22.4727 3.4375 21.1484 3.39062 19.8828C3.36719 18.5938 3.32031 17.457 3.25 16.4727C3.20312 15.4648 3.13281 14.7383 3.03906 14.293C2.89844 13.8008 2.71094 13.2969 2.47656 12.7812C2.28906 12.3359 2.01953 11.8555 1.66797 11.3398C1.33984 10.8242 0.941406 10.332 0.472656 9.86328ZM7.89062 13.4492C7.89062 13.543 7.90234 13.8594 7.92578 14.3984C7.94922 14.8672 7.97266 15.5938 7.99609 16.5781C8.04297 17.5391 8.10156 18.9102 8.17188 20.6914C8.75781 20.9492 9.33203 21.0898 9.89453 21.1133C10.457 21.1133 10.9609 21.0898 11.4062 21.043C11.9219 20.9727 12.4141 20.8555 12.8828 20.6914C13.5156 20.4336 14.0078 20.0117 14.3594 19.4258C14.7344 18.8398 14.9805 18.2305 15.0977 17.5977C15.2383 16.9414 15.2734 16.332 15.2031 15.7695C15.1328 15.1836 14.9805 14.7617 14.7461 14.5039C14.3008 14.1055 13.75 13.7773 13.0938 13.5195C12.5312 13.3086 11.8164 13.168 10.9492 13.0977C10.1055 13.0039 9.08594 13.1211 7.89062 13.4492ZM7.71484 30.1133C8.58203 30.5586 9.34375 30.8516 10 30.9922C10.6562 31.1328 11.207 31.2031 11.6523 31.2031C12.168 31.2031 12.6133 31.1328 12.9883 30.9922C13.4336 30.7812 13.8672 30.5 14.2891 30.1484C14.7344 29.7734 15.0625 29.3398 15.2734 28.8477C15.5078 28.332 15.6016 27.7695 15.5547 27.1602C15.5078 26.5273 15.2383 25.8359 14.7461 25.0859C14.3008 24.5469 13.7617 24.125 13.1289 23.8203C12.5664 23.5625 11.8516 23.3984 10.9844 23.3281C10.1406 23.2578 9.09766 23.457 7.85547 23.9258L7.71484 30.1133ZM24.0977 10.7773C24.8945 10.8711 25.5625 10.9414 26.1016 10.9883C26.6641 11.0117 27.1211 11.0469 27.4727 11.0938C27.8945 11.1406 28.2227 11.1641 28.457 11.1641C28.7148 11.1875 29.1016 11.1758 29.6172 11.1289C30.0625 11.082 30.6602 11.0234 31.4102 10.9531C32.1836 10.8828 33.168 10.7773 34.3633 10.6367C33.8242 11.1055 33.3906 11.5625 33.0625 12.0078C32.7578 12.4297 32.5234 12.8047 32.3594 13.1328C32.1484 13.5313 32.0195 13.9062 31.9727 14.2578C31.8789 14.8203 31.7969 15.5938 31.7266 16.5781C31.6797 17.5391 31.6328 18.5938 31.5859 19.7422C31.5391 20.8906 31.5156 22.0742 31.5156 23.293C31.5156 24.5117 31.5273 25.6719 31.5508 26.7734C31.5977 27.8516 31.668 28.8125 31.7617 29.6562C31.8789 30.5 32.0195 31.1094 32.1836 31.4844C32.418 31.9062 32.6641 32.3281 32.9219 32.75C33.1562 33.1016 33.4375 33.4648 33.7656 33.8398C34.0938 34.2148 34.4688 34.5195 34.8906 34.7539C33.5078 34.6836 32.4062 34.6484 31.5859 34.6484H30.3203C29.9453 34.6484 29.4648 34.6719 28.8789 34.7188C28.3867 34.7656 27.7656 34.8125 27.0156 34.8594C26.2656 34.9062 25.3633 34.9766 24.3086 35.0703C24.8477 34.4844 25.2695 33.9219 25.5742 33.3828C25.8789 32.8438 26.125 32.375 26.3125 31.9766C26.5234 31.5078 26.6641 31.0625 26.7344 30.6406C26.8281 30.0312 26.8984 29.2812 26.9453 28.3906C27.0156 27.4766 27.0625 26.5039 27.0859 25.4727C27.1094 24.418 27.1094 23.3516 27.0859 22.2734C27.0859 21.1719 27.0625 20.1172 27.0156 19.1094C26.9688 18.1016 26.8984 17.1875 26.8047 16.3672C26.7344 15.5469 26.6406 14.8906 26.5234 14.3984C26.4531 14.0938 26.3125 13.7539 26.1016 13.3789C25.9141 13.0508 25.6562 12.6758 25.3281 12.2539C25.0234 11.8086 24.6133 11.3164 24.0977 10.7773Z" fill="white"/>
<path d="M101.781 9.26562C101.453 10.0156 101.16 10.6719 100.902 11.2344C100.645 11.7969 100.422 12.2773 100.234 12.6758C100.023 13.1211 99.8477 13.5195 99.707 13.8711C99.5898 14.1289 99.4375 14.4805 99.25 14.9258C99.0625 15.3242 98.8281 15.8516 98.5469 16.5078C98.2891 17.1406 97.9492 17.9609 97.5273 18.9688C97.3164 18.1016 97.0586 17.3398 96.7539 16.6836C96.4492 16.0273 96.1211 15.4531 95.7695 14.9609C95.418 14.4688 95.043 14.0703 94.6445 13.7656C94.2695 13.4375 93.8945 13.168 93.5195 12.957C92.6523 12.4883 91.7383 12.2305 90.7773 12.1836C89.5117 12.2539 88.5156 12.4648 87.7891 12.8164C87.0859 13.1445 86.5703 13.5313 86.2422 13.9766C85.9141 14.3984 85.7383 14.8437 85.7148 15.3125C85.6914 15.7578 85.75 16.1328 85.8906 16.4375C86.0078 16.7188 86.418 17.0469 87.1211 17.4219C87.8477 17.7969 88.7148 18.2305 89.7227 18.7227C90.7539 19.1914 91.8555 19.7305 93.0273 20.3398C94.1992 20.9258 95.2773 21.582 96.2617 22.3086C97.2695 23.0117 98.1133 23.7852 98.793 24.6289C99.4961 25.4492 99.8828 26.3281 99.9531 27.2656C100.023 28.4609 100.012 29.5391 99.918 30.5C99.8242 31.4609 99.4961 32.2812 98.9336 32.9609C98.3711 33.6406 97.4922 34.1797 96.2969 34.5781C95.125 34.9766 93.4961 35.2227 91.4102 35.3164C89.2539 35.4102 87.4844 35.293 86.1016 34.9648C84.7188 34.6367 83.5938 34.1914 82.7266 33.6289C81.8828 33.0664 81.25 32.4453 80.8281 31.7656C80.4297 31.0859 80.1367 30.4414 79.9492 29.832C79.7617 29.1992 79.6328 28.6602 79.5625 28.2148C79.4922 27.7461 79.375 27.4648 79.2109 27.3711C79.0234 27.2539 78.8359 27.1484 78.6484 27.0547C78.4844 26.9609 78.3086 26.8789 78.1211 26.8086C77.9336 26.7148 77.7461 26.6328 77.5586 26.5625L87.7891 24.9102C87.2031 25.3789 86.7461 25.8125 86.418 26.2109C86.1133 26.6094 85.8789 26.9609 85.7148 27.2656C85.5273 27.6172 85.3984 27.9453 85.3281 28.25C85.2812 28.5781 85.3867 28.9883 85.6445 29.4805C85.9023 29.9727 86.2539 30.4531 86.6992 30.9219C87.168 31.3672 87.707 31.7422 88.3164 32.0469C88.9258 32.3516 89.5586 32.4805 90.2148 32.4336C91.0352 32.3633 91.7031 32.1641 92.2188 31.8359C92.7344 31.4844 93.1211 31.0508 93.3789 30.5352C93.6602 30.0195 93.8242 29.457 93.8711 28.8477C93.918 28.2383 93.8594 27.6406 93.6953 27.0547C93.5547 26.4453 93.3203 25.8828 92.9922 25.3672C92.6641 24.8281 92.2773 24.3828 91.832 24.0312C91.4336 23.75 90.8125 23.4805 89.9688 23.2227C89.1484 22.9648 88.2227 22.6836 87.1914 22.3789C86.1836 22.0742 85.1406 21.7227 84.0625 21.3242C83.0078 20.9258 82.0469 20.4336 81.1797 19.8477C80.3359 19.2617 79.6562 18.5703 79.1406 17.7734C78.6484 16.9766 78.4609 16.0156 78.5781 14.8906C78.6719 13.9297 78.9766 13.1328 79.4922 12.5C80.0312 11.8438 80.6992 11.3281 81.4961 10.9531C82.3164 10.5547 83.2188 10.2617 84.2031 10.0742C85.2109 9.88672 86.2305 9.78125 87.2617 9.75781C88.3164 9.71094 89.3477 9.72266 90.3555 9.79297C91.3867 9.86328 92.3125 9.94531 93.1328 10.0391C93.9531 10.1328 94.6445 10.2266 95.207 10.3203C95.793 10.3906 96.1562 10.4375 96.2969 10.4609C96.9062 10.5078 97.5156 10.4961 98.125 10.4258C98.6641 10.3789 99.25 10.2734 99.8828 10.1094C100.539 9.92187 101.172 9.64062 101.781 9.26562Z" fill="white"/>
</svg>
